mtllib source/arrow.mtl
o arrow
usemtl tex-global
v -3.075927568207959e-10 1.0000000596046448 -5.468315933399026e-8
v -3.075927568207959e-10 1.0000000596046448 -5.468315933399026e-8
v -3.075927568207959e-10 -0.9999999403953552 -5.468315933399026e-8
v -3.075927568207959e-10 -0.9961951375007629 -0.02084743231534958
v -3.075927568207959e-10 -0.9857777953147888 -0.04794985428452492
v -3.075927568207959e-10 -0.9661816954612732 -0.07342396676540375
v -3.075927568207959e-10 -0.9426576495170593 -0.09044400602579117
v -3.075927568207959e-10 1.4975090622901917 -1.0319280624389648
v -3.075927568207959e-10 1.521755039691925 -1.09691321849823
v -3.075927568207959e-10 1.526020586490631 -1.14884352684021
v -3.075927568207959e-10 1.5100153088569641 -1.1841801404953003
v -3.075927568207959e-10 1.4748297333717346 -1.2005149126052856
v -3.075927568207959e-10 1.4228618741035461 -1.1967346668243408
v -3.075927568207959e-10 1.3576529622077942 -1.1730968952178955
v 0.2155613899230957 -0.4539376497268677 -5.468315933399026e-8
v -0.2155613899230957 -0.4539376497268677 -5.468315933399026e-8
v -3.075927568207959e-10 -0.9961951375007629 0.020847324281930923
v -3.075927568207959e-10 -0.9857777953147888 0.047949742525815964
v -3.075927568207959e-10 -0.9661816954612732 0.07342386245727539
v -3.075927568207959e-10 -0.9426576495170593 0.09044390171766281
v -3.075927568207959e-10 1.4975090622901917 1.0319280624389648
v -3.075927568207959e-10 1.521755039691925 1.09691321849823
v -3.075927568207959e-10 1.526020586490631 1.14884352684021
v -3.075927568207959e-10 1.5100153088569641 1.1841801404953003
v -3.075927568207959e-10 1.4748297333717346 1.2005149126052856
v -3.075927568207959e-10 1.4228618741035461 1.1967346668243408
v -3.075927568207959e-10 1.3576529622077942 1.1730968952178955
v 0.03683764114975929 -0.9781226515769958 -5.468315933399026e-8
v 0.004415492992848158 -0.9999999403953552 -5.468315933399026e-8
v 0.029763638973236084 -0.9890614151954651 -5.468315933399026e-8
v 0.01789630949497223 -0.9970690608024597 -5.468315933399026e-8
v 0.33786389231681824 1.0000000596046448 -5.468315933399026e-8
v 0.3575102984905243 0.9808407425880432 -5.468315933399026e-8
v 0.3483809232711792 0.9974331259727478 -5.468315933399026e-8
v 0.355571985244751 0.990420401096344 -5.468315933399026e-8
v 0.03681010380387306 -0.9745504260063171 -0.02001529186964035
v 0.004412177484482527 -0.9961951375007629 -0.02084743231534958
v 0.029749425128102303 -0.9853727221488953 -0.020431362092494965
v 0.017890961840748787 -0.9932953715324402 -0.02073594741523266
v 0.004657731857150793 -0.9426576495170593 -0.09044400602579117
v 0.035576533526182175 -0.9263879656791687 -0.0874330922961235
v 0.01784847304224968 -0.9404780268669128 -0.09004063159227371
v 0.029165539890527725 -0.934522807598114 -0.08893854171037674
v 0.004411959555000067 -0.9857777953147888 -0.04794985428452492
v 0.03670398145914078 -0.9648520350456238 -0.04606322571635246
v 0.017876632511615753 -0.9829742312431335 -0.04769709333777428
v 0.029696332290768623 -0.9753149151802063 -0.04700654372572899
v 0.004457579459995031 -0.9661816954612732 -0.07342396676540375
v 0.036405447870492935 -0.9468483328819275 -0.07065276056528091
v 0.017859451472759247 -0.9635915160179138 -0.07305269688367844
v 0.029553182423114777 -0.9565150141716003 -0.07203835994005203
v 0.10038749873638153 1.3163912892341614 -1.1463779211044312
v 0.07349050045013428 1.3576529622077942 -1.1730968952178955
v 0.09580141305923462 1.3370211720466614 -1.1597368717193604
v 0.08595642447471619 1.3521245121955872 -1.169516921043396
v 0.07606066763401031 1.4975090622901917 -1.0319280624389648
v 0.09925299882888794 1.4718464016914368 -1.0183576345443726
v 0.08708954602479935 1.494070827960968 -1.0301098823547363
v 0.09557853639125824 1.4846778512001038 -1.0251429080963135
v 0.09956615418195724 1.3931942582130432 -1.1778172254562378
v 0.07416988909244537 1.4228618741035461 -1.1967346668243408
v 0.0954817682504654 1.408027708530426 -1.1872756481170654
v 0.08618608862161636 1.4188867211341858 -1.194200038909912
v 0.0993315801024437 1.448179304599762 -1.183927059173584
v 0.07476576417684555 1.4748297333717346 -1.2005149126052856
v 0.09544432163238525 1.4615042805671692 -1.19222092628479
v 0.08645260334014893 1.4712589383125305 -1.1982924938201904
v 0.09926179051399231 1.4840417504310608 -1.168519139289856
v 0.07523476332426071 1.5100153088569641 -1.1841801404953003
v 0.09547226130962372 1.497028410434723 -1.1763496398925781
v 0.08667775988578796 1.5065353512763977 -1.182081937789917
v 0.0992392748594284 1.5002136826515198 -1.1338694095611572
v 0.07558700442314148 1.526020586490631 -1.14884352684021
v 0.09550818800926208 1.5131171345710754 -1.1413564682006836
v 0.0868508592247963 1.5225630402565002 -1.1468373537063599
v 0.09924153238534927 1.4959657788276672 -1.0825949907302856
v 0.07585099339485168 1.521755039691925 -1.09691321849823
v 0.09554468095302582 1.5088604092597961 -1.0897541046142578
v 0.08698315173387527 1.5182998776435852 -1.0949950218200684
v -0.0044154939241707325 -0.9999999403953552 -5.468315933399026e-8
v -0.03683764114975929 -0.9781226515769958 -5.468315933399026e-8
v -0.01789630949497223 -0.9970690608024597 -5.468315933399026e-8
v -0.029763638973236084 -0.9890614151954651 -5.468315933399026e-8
v -0.3575102984905243 0.9808407425880432 -5.468315933399026e-8
v -0.33786389231681824 1.0000000596046448 -5.468315933399026e-8
v -0.355571985244751 0.990420401096344 -5.468315933399026e-8
v -0.3483809232711792 0.9974331259727478 -5.468315933399026e-8
v -0.004412178415805101 -0.9961951375007629 -0.02084743231534958
v -0.03681010380387306 -0.9745504260063171 -0.02001529186964035
v -0.017890961840748787 -0.9932953715324402 -0.02073594741523266
v -0.029749425128102303 -0.9853727221488953 -0.020431362092494965
v -0.035576533526182175 -0.9263879656791687 -0.0874330922961235
v -0.004657731857150793 -0.9426576495170593 -0.09044400602579117
v -0.029165538027882576 -0.934522807598114 -0.08893854171037674
v -0.01784847117960453 -0.9404780268669128 -0.09004063159227371
v -0.03670398145914078 -0.9648520350456238 -0.04606322571635246
v -0.004411958623677492 -0.9857777953147888 -0.04794985428452492
v -0.029696334153413773 -0.9753149151802063 -0.04700654372572899
v -0.017876634374260902 -0.9829742312431335 -0.04769709333777428
v -0.036405447870492935 -0.9468483328819275 -0.07065276056528091
v -0.004457578528672457 -0.9661816954612732 -0.07342396676540375
v -0.029553180560469627 -0.9565150141716003 -0.07203835994005203
v -0.01785944774746895 -0.9635915160179138 -0.07305269688367844
v -0.07349050045013428 1.3576529622077942 -1.1730968952178955
v -0.10038749873638153 1.3163912892341614 -1.1463779211044312
v -0.08595642447471619 1.3521245121955872 -1.169516921043396
v -0.09580141305923462 1.3370211720466614 -1.1597368717193604
v -0.09925299882888794 1.4718464016914368 -1.0183576345443726
v -0.07606066763401031 1.4975090622901917 -1.0319280624389648
v -0.09557853639125824 1.4846778512001038 -1.0251429080963135
v -0.08708953857421875 1.494070827960968 -1.0301098823547363
v -0.07416988909244537 1.4228618741035461 -1.1967346668243408
v -0.09956615418195724 1.3931942582130432 -1.1778172254562378
v -0.08618608862161636 1.4188867211341858 -1.194200038909912
v -0.0954817682504654 1.408027708530426 -1.1872756481170654
v -0.07476576417684555 1.4748297333717346 -1.2005149126052856
v -0.0993315801024437 1.448179304599762 -1.183927059173584
v -0.08645260334014893 1.4712589383125305 -1.1982924938201904
v -0.09544432163238525 1.4615042805671692 -1.19222092628479
v -0.07523476332426071 1.5100153088569641 -1.1841801404953003
v -0.09926179051399231 1.4840417504310608 -1.168519139289856
v -0.08667775988578796 1.5065353512763977 -1.182081937789917
v -0.09547226130962372 1.497028410434723 -1.1763496398925781
v -0.07558700442314148 1.526020586490631 -1.14884352684021
v -0.0992392748594284 1.5002136826515198 -1.1338694095611572
v -0.0868508592247963 1.5225630402565002 -1.1468373537063599
v -0.09550818800926208 1.5131171345710754 -1.1413564682006836
v -0.07585099339485168 1.521755039691925 -1.09691321849823
v -0.09924153238534927 1.4959657788276672 -1.0825949907302856
v -0.08698315173387527 1.5182998776435852 -1.0949950218200684
v -0.09554468095302582 1.5088604092597961 -1.0897541046142578
v 0.004412177484482527 -0.9961951375007629 0.020847324281930923
v 0.03681010380387306 -0.9745504260063171 0.020015183836221695
v 0.017890961840748787 -0.9932953715324402 0.020735839381814003
v 0.029749425128102303 -0.9853727221488953 0.02043125405907631
v 0.035576533526182175 -0.9263879656791687 0.08743298798799515
v 0.0046577309258282185 -0.9426576495170593 0.09044390171766281
v 0.029165538027882576 -0.934522807598114 0.08893843740224838
v 0.01784847117960453 -0.9404780268669128 0.09004052728414536
v 0.03670398145914078 -0.9648520350456238 0.04606311395764351
v 0.0044119576923549175 -0.9857777953147888 0.047949742525815964
v 0.029696334153413773 -0.9753149151802063 0.047006431967020035
v 0.017876634374260902 -0.9829742312431335 0.04769698157906532
v 0.036405447870492935 -0.9468483328819275 0.07065265625715256
v 0.004457577597349882 -0.9661816954612732 0.07342386245727539
v 0.029553180560469627 -0.9565150141716003 0.07203825563192368
v 0.01785944774746895 -0.9635915160179138 0.07305259257555008
v 0.07349050045013428 1.3576529622077942 1.1730968952178955
v 0.10038749873638153 1.3163912892341614 1.1463779211044312
v 0.08595642447471619 1.3521245121955872 1.169516921043396
v 0.09580141305923462 1.3370211720466614 1.1597368717193604
v 0.09925299882888794 1.4718464016914368 1.0183576345443726
v 0.07606066763401031 1.4975090622901917 1.0319280624389648
v 0.09557853639125824 1.4846778512001038 1.0251429080963135
v 0.08708953857421875 1.494070827960968 1.0301098823547363
v 0.07416988909244537 1.4228618741035461 1.1967346668243408
v 0.09956615418195724 1.3931942582130432 1.1778172254562378
v 0.08618608862161636 1.4188867211341858 1.194200038909912
v 0.0954817682504654 1.408027708530426 1.1872756481170654
v 0.07476576417684555 1.4748297333717346 1.2005149126052856
v 0.0993315801024437 1.448179304599762 1.183927059173584
v 0.08645260334014893 1.4712589383125305 1.1982924938201904
v 0.09544432163238525 1.4615042805671692 1.19222092628479
v 0.07523476332426071 1.5100153088569641 1.1841801404953003
v 0.09926179051399231 1.4840417504310608 1.168519139289856
v 0.08667775988578796 1.5065353512763977 1.182081937789917
v 0.09547226130962372 1.497028410434723 1.1763496398925781
v 0.07558700442314148 1.526020586490631 1.14884352684021
v 0.0992392748594284 1.5002136826515198 1.1338694095611572
v 0.0868508592247963 1.5225630402565002 1.1468373537063599
v 0.09550818800926208 1.5131171345710754 1.1413564682006836
v 0.07585099339485168 1.521755039691925 1.09691321849823
v 0.09924153238534927 1.4959657788276672 1.0825949907302856
v 0.08698315173387527 1.5182998776435852 1.0949950218200684
v 0.09554468095302582 1.5088604092597961 1.0897541046142578
v -0.03681010380387306 -0.9745504260063171 0.020015183836221695
v -0.004412178415805101 -0.9961951375007629 0.020847324281930923
v -0.029749425128102303 -0.9853727221488953 0.02043125405907631
v -0.017890961840748787 -0.9932953715324402 0.020735839381814003
v -0.004657732788473368 -0.9426576495170593 0.09044390171766281
v -0.035576533526182175 -0.9263879656791687 0.08743298798799515
v -0.01784847304224968 -0.9404780268669128 0.09004052728414536
v -0.029165539890527725 -0.934522807598114 0.08893843740224838
v -0.004411960486322641 -0.9857777953147888 0.047949742525815964
v -0.03670398145914078 -0.9648520350456238 0.04606311395764351
v -0.017876632511615753 -0.9829742312431335 0.04769698157906532
v -0.029696332290768623 -0.9753149151802063 0.047006431967020035
v -0.004457580391317606 -0.9661816954612732 0.07342386245727539
v -0.036405447870492935 -0.9468483328819275 0.07065265625715256
v -0.017859451472759247 -0.9635915160179138 0.07305259257555008
v -0.029553182423114777 -0.9565150141716003 0.07203825563192368
v -0.10038749873638153 1.3163912892341614 1.1463779211044312
v -0.07349050045013428 1.3576529622077942 1.1730968952178955
v -0.09580141305923462 1.3370211720466614 1.1597368717193604
v -0.08595642447471619 1.3521245121955872 1.169516921043396
v -0.07606066763401031 1.4975090622901917 1.0319280624389648
v -0.09925299882888794 1.4718464016914368 1.0183576345443726
v -0.08708954602479935 1.494070827960968 1.0301098823547363
v -0.09557853639125824 1.4846778512001038 1.0251429080963135
v -0.09956615418195724 1.3931942582130432 1.1778172254562378
v -0.07416988909244537 1.4228618741035461 1.1967346668243408
v -0.0954817682504654 1.408027708530426 1.1872756481170654
v -0.08618608862161636 1.4188867211341858 1.194200038909912
v -0.0993315801024437 1.448179304599762 1.183927059173584
v -0.07476576417684555 1.4748297333717346 1.2005149126052856
v -0.09544432163238525 1.4615042805671692 1.19222092628479
v -0.08645260334014893 1.4712589383125305 1.1982924938201904
v -0.09926179051399231 1.4840417504310608 1.168519139289856
v -0.07523476332426071 1.5100153088569641 1.1841801404953003
v -0.09547226130962372 1.497028410434723 1.1763496398925781
v -0.08667775988578796 1.5065353512763977 1.182081937789917
v -0.0992392748594284 1.5002136826515198 1.1338694095611572
v -0.07558700442314148 1.526020586490631 1.14884352684021
v -0.09550818800926208 1.5131171345710754 1.1413564682006836
v -0.0868508592247963 1.5225630402565002 1.1468373537063599
v -0.09924153238534927 1.4959657788276672 1.0825949907302856
v -0.07585099339485168 1.521755039691925 1.09691321849823
v -0.09554468095302582 1.5088604092597961 1.0897541046142578
v -0.08698315173387527 1.5182998776435852 1.0949950218200684
vt 0.31345197558403015 0.7222623825073242
vt 0.31345197558403015 0.7222623825073242
vt 0.326610267162323 0.15107345581054688
vt 0.3318292200565338 0.15346872806549072
vt 0.33861619234085083 0.15744507312774658
vt 0.3450520634651184 0.1630067229270935
vt 0.3496536612510681 0.1687307357788086
vt 0.5841265916824341 0.7504951357841492
vt 0.602977991104126 0.7493073344230652
vt 0.6184852123260498 0.7437409162521362
vt 0.6285713911056519 0.7358313798904419
vt 0.6361091136932373 0.7250012159347534
vt 0.640284538269043 0.7076407074928284
vt 0.6365026235580444 0.6853674650192261
vt 0.31345197558403015 0.2937016487121582
vt 0.31345197558403015 0.2937016487121582
vt 0.3318292200565338 0.15346872806549072
vt 0.33861619234085083 0.15744507312774658
vt 0.3450520634651184 0.1630067229270935
vt 0.3496536612510681 0.1687307357788086
vt 0.5841265916824341 0.7504951357841492
vt 0.602977991104126 0.7493073344230652
vt 0.6184852123260498 0.7437409162521362
vt 0.6285713911056519 0.7358313798904419
vt 0.6361091136932373 0.7250012159347534
vt 0.640284538269043 0.7076407074928284
vt 0.6365026235580444 0.6853674650192261
vt 0.3230542838573456 0.16377300024032593
vt 0.32613605260849 0.15216714143753052
vt 0.32331764698028564 0.16081738471984863
vt 0.3248134255409241 0.15555810928344727
vt 0.323248028755188 0.6424075365066528
vt 0.3237352967262268 0.6327881217002869
vt 0.32329216599464417 0.6398950815200806
vt 0.32399746775627136 0.6349686980247498
vt 0.3277670443058014 0.1655334234237671
vt 0.331308513879776 0.15448033809661865
vt 0.3281497359275818 0.16262763738632202
vt 0.3298696279525757 0.157647967338562
vt 0.34876999258995056 0.16937822103500366
vt 0.3430604040622711 0.17683923244476318
vt 0.3464806079864502 0.17153358459472656
vt 0.3438977599143982 0.1746060848236084
vt 0.3379850685596466 0.15833443403244019
vt 0.33358895778656006 0.16849541664123535
vt 0.3362843990325928 0.16121208667755127
vt 0.334148108959198 0.16569364070892334
vt 0.34429317712783813 0.16374123096466064
vt 0.33904650807380676 0.17259752750396729
vt 0.34227025508880615 0.16622066497802734
vt 0.33978962898254395 0.16998648643493652
vt 0.6028788685798645 0.6824083924293518
vt 0.616285502910614 0.6899562478065491
vt 0.6065336465835571 0.6868340373039246
vt 0.6122720241546631 0.6893103122711182
vt 0.5829336643218994 0.7315511703491211
vt 0.5790548920631409 0.7204737663269043
vt 0.5820823907852173 0.7287609577178955
vt 0.5809176564216614 0.7233074307441711
vt 0.6100950241088867 0.6981812715530396
vt 0.6209834814071655 0.705391526222229
vt 0.6126281023025513 0.701438307762146
vt 0.6177406907081604 0.7040525674819946
vt 0.6108316779136658 0.7080484628677368
vt 0.6199543476104736 0.7164708375930786
vt 0.6129828691482544 0.7109725475311279
vt 0.6175904273986816 0.7145260572433472
vt 0.6075862646102905 0.7145043015480042
vt 0.6154477000236511 0.7237515449523926
vt 0.6095862984657288 0.7173504829406738
vt 0.613534688949585 0.7217358350753784
vt 0.6016846895217896 0.7190867066383362
vt 0.6084325313568115 0.7290135622024536
vt 0.6035993099212646 0.7219353914260864
vt 0.6066628098487854 0.72691810131073
vt 0.5924520492553711 0.7216372489929199
vt 0.5976709723472595 0.7322198152542114
vt 0.5942956209182739 0.7245235443115234
vt 0.5963365435600281 0.7297722101211548
vt 0.32613605260849 0.15216714143753052
vt 0.3230542838573456 0.16377300024032593
vt 0.3248134255409241 0.15555810928344727
vt 0.32331764698028564 0.16081738471984863
vt 0.3237352967262268 0.6327881217002869
vt 0.323248028755188 0.6424075365066528
vt 0.32399746775627136 0.6349686980247498
vt 0.32329216599464417 0.6398950815200806
vt 0.3313085436820984 0.15448033809661865
vt 0.3277670443058014 0.1655334234237671
vt 0.3298696279525757 0.157647967338562
vt 0.3281497359275818 0.16262763738632202
vt 0.3430604338645935 0.17683923244476318
vt 0.34877002239227295 0.16937822103500366
vt 0.3438977599143982 0.1746060848236084
vt 0.3464805483818054 0.17153358459472656
vt 0.33358892798423767 0.16849547624588013
vt 0.3379850685596466 0.15833443403244019
vt 0.334148108959198 0.16569364070892334
vt 0.3362843990325928 0.16121208667755127
vt 0.33904650807380676 0.17259752750396729
vt 0.34429314732551575 0.16374123096466064
vt 0.33978959918022156 0.16998648643493652
vt 0.3422701954841614 0.16622066497802734
vt 0.616285502910614 0.6899562478065491
vt 0.6028788089752197 0.6824083924293518
vt 0.6122720837593079 0.6893103122711182
vt 0.6065336465835571 0.6868339776992798
vt 0.5790548920631409 0.7204737663269043
vt 0.5829336643218994 0.7315511703491211
vt 0.5809175968170166 0.7233073711395264
vt 0.5820823907852173 0.7287609577178955
vt 0.6209834814071655 0.705391526222229
vt 0.6100950241088867 0.6981813311576843
vt 0.6177406311035156 0.7040525674819946
vt 0.6126281023025513 0.701438307762146
vt 0.6199543476104736 0.7164708375930786
vt 0.6108316779136658 0.7080484628677368
vt 0.6175904273986816 0.7145260572433472
vt 0.6129828691482544 0.7109725475311279
vt 0.6154477000236511 0.7237516045570374
vt 0.6075862646102905 0.7145043015480042
vt 0.6135347485542297 0.7217358350753784
vt 0.6095862984657288 0.7173504829406738
vt 0.6084325313568115 0.7290135622024536
vt 0.6016846895217896 0.7190867066383362
vt 0.6066628694534302 0.7269181609153748
vt 0.6035993099212646 0.7219353914260864
vt 0.5976709723472595 0.7322198152542114
vt 0.5924520492553711 0.7216372489929199
vt 0.5963364839553833 0.7297722101211548
vt 0.5942956209182739 0.7245235443115234
vt 0.331308513879776 0.15448033809661865
vt 0.3277670443058014 0.16553348302841187
vt 0.3298696279525757 0.157647967338562
vt 0.3281497359275818 0.16262763738632202
vt 0.3430604338645935 0.17683923244476318
vt 0.34877002239227295 0.16937822103500366
vt 0.3438977599143982 0.1746060848236084
vt 0.3464805483818054 0.17153358459472656
vt 0.33358895778656006 0.16849541664123535
vt 0.3379850685596466 0.15833443403244019
vt 0.334148108959198 0.16569364070892334
vt 0.3362843990325928 0.16121208667755127
vt 0.33904650807380676 0.17259752750396729
vt 0.34429314732551575 0.16374123096466064
vt 0.33978959918022156 0.16998648643493652
vt 0.3422701954841614 0.16622066497802734
vt 0.616285502910614 0.6899562478065491
vt 0.6028788089752197 0.6824083924293518
vt 0.6122720837593079 0.6893103122711182
vt 0.6065336465835571 0.6868339776992798
vt 0.5790548920631409 0.7204738259315491
vt 0.5829336643218994 0.7315511703491211
vt 0.5809175968170166 0.7233073711395264
vt 0.5820823907852173 0.7287609577178955
vt 0.6209834814071655 0.705391526222229
vt 0.6100950241088867 0.6981813311576843
vt 0.6177406311035156 0.7040525674819946
vt 0.6126281023025513 0.701438307762146
vt 0.6199543476104736 0.7164708375930786
vt 0.6108316779136658 0.7080484628677368
vt 0.6175904273986816 0.7145260572433472
vt 0.6129828691482544 0.7109725475311279
vt 0.6154477000236511 0.7237516045570374
vt 0.6075862646102905 0.7145043015480042
vt 0.6135347485542297 0.7217358350753784
vt 0.6095862984657288 0.7173504829406738
vt 0.6084325313568115 0.7290135622024536
vt 0.6016846895217896 0.7190867066383362
vt 0.6066628694534302 0.7269181609153748
vt 0.6035993099212646 0.7219353914260864
vt 0.5976709723472595 0.7322198152542114
vt 0.5924520492553711 0.7216372489929199
vt 0.5963364839553833 0.7297722101211548
vt 0.5942956209182739 0.7245235443115234
vt 0.3277670443058014 0.1655334234237671
vt 0.3313085436820984 0.15448033809661865
vt 0.3281497359275818 0.16262763738632202
vt 0.3298696279525757 0.157647967338562
vt 0.34876999258995056 0.16937822103500366
vt 0.3430604040622711 0.17683923244476318
vt 0.3464806079864502 0.17153358459472656
vt 0.3438977599143982 0.1746060848236084
vt 0.3379850685596466 0.15833443403244019
vt 0.33358895778656006 0.16849541664123535
vt 0.3362843990325928 0.16121208667755127
vt 0.334148108959198 0.16569364070892334
vt 0.34429317712783813 0.16374123096466064
vt 0.33904650807380676 0.17259752750396729
vt 0.34227025508880615 0.16622066497802734
vt 0.33978962898254395 0.16998648643493652
vt 0.6028788685798645 0.6824083924293518
vt 0.616285502910614 0.6899562478065491
vt 0.6065336465835571 0.6868340373039246
vt 0.6122720241546631 0.6893103122711182
vt 0.5829336643218994 0.7315511703491211
vt 0.5790548920631409 0.7204737663269043
vt 0.5820823907852173 0.7287609577178955
vt 0.5809176564216614 0.7233074307441711
vt 0.6100950241088867 0.6981812715530396
vt 0.6209834814071655 0.705391526222229
vt 0.6126281023025513 0.701438307762146
vt 0.6177406907081604 0.7040525674819946
vt 0.6108316779136658 0.7080484628677368
vt 0.6199543476104736 0.7164708375930786
vt 0.6129828691482544 0.7109725475311279
vt 0.6175904273986816 0.7145260572433472
vt 0.6075862646102905 0.7145043015480042
vt 0.6154477000236511 0.7237515449523926
vt 0.6095862984657288 0.7173504829406738
vt 0.613534688949585 0.7217358350753784
vt 0.6016846895217896 0.7190867066383362
vt 0.6084325313568115 0.7290135622024536
vt 0.6035993099212646 0.7219353914260864
vt 0.6066628098487854 0.72691810131073
vt 0.5924520492553711 0.7216372489929199
vt 0.5976709723472595 0.7322198152542114
vt 0.5942956209182739 0.7245235443115234
vt 0.5963365435600281 0.7297722101211548
vn 0 0.9007742587623665 -0.4342876175429244
vn 0 0.9007742587623665 0.4342876175429244
vn 0 -1 0
vn 0 -0.9627778927017343 -0.27029378336322873
vn 0 -0.8721118130566227 -0.4893066375260919
vn 0 -0.6966298452282732 -0.7174307344526244
vn 0 -0.5082170933540984 -0.8612289974348933
vn 0 0.9198315779436336 0.39231348207489
vn 0 0.9759937341974597 0.21779860148150235
vn 0 0.9853055527196778 -0.17080095953995708
vn 0 0.7103990325353566 -0.7037991294203406
vn 0 0.17999409874452077 -0.9836676900341638
vn 0 -0.20860021026570683 -0.978000998096169
vn 0 -0.3837205163716055 -0.9234492759840729
vn 0.9720924362914656 -0.23459815707912754 0
vn -0.9720924362914656 -0.23459815707912754 0
vn 0 -0.9627778927017343 0.27029378336322873
vn 0 -0.8721118130566227 0.4893066375260919
vn 0 -0.6966298452282732 0.7174307344526244
vn 0 -0.5082170933540984 0.8612289974348933
vn 0 0.9198315779436336 -0.39231348207489
vn 0 0.9759937341974597 -0.21779860148150235
vn 0 0.9853055527196778 0.17080095953995708
vn 0 0.7103990325353566 0.7037991294203406
vn 0 0.17999409874452077 0.9836676900341638
vn 0 -0.20860021026570683 0.978000998096169
vn 0 -0.3837205163716055 0.9234492759840729
vn 0.8943871927061888 -0.4472935831455025 0
vn 0.10540313870722497 -0.9944295743543962 0
vn 0.7024412248218342 -0.7117417549018753 0
vn 0.38492068042904354 -0.9229496572284115 0
vn 0.14069334119476595 0.990053222682222 0
vn 0.999952958315093 0.00969954415908248 0
vn 0.5467831944035912 0.8372742312515086 0
vn 0.9183466506625058 0.39577699429976654 0
vn 0.8908022496953522 -0.43720113518563386 -0.12380032039575874
vn 0.10219516043544244 -0.9581545660864761 -0.26738731583830033
vn 0.6960028283100298 -0.6915028565254412 -0.19340078180192077
vn 0.37749414088724137 -0.8921861282854839 -0.24799614128199998
vn 0.05389966092882851 -0.5119968319974403 -0.8572946229717893
vn 0.7573598134206826 -0.33558220145261214 -0.5601702411621017
vn 0.2212993192461638 -0.5065984698179524 -0.8332974269006796
vn 0.49381853916600327 -0.4540170319559068 -0.7416277941595119
vn 0.0932010550118947 -0.870309878943132 -0.48360549827174276
vn 0.8725731770718111 -0.4239869319472501 -0.24259252295312767
vn 0.3498054115050385 -0.8200126812018607 -0.4530070383006497
vn 0.6636996381564443 -0.6528996349381225 -0.3649998041214151
vn 0.07589932552557242 -0.6992937346183825 -0.7107936163952504
vn 0.8309085740980382 -0.38510396037609984 -0.40160413493016806
vn 0.29609867241546595 -0.6740969858698945 -0.6766970000191531
vn 0.5978923066529012 -0.5638927431236053 -0.5696926925086969
vn 0.8252386237973613 -0.23641104386600953 -0.5129240022958771
vn 0.04760077208760931 -0.3784061360816196 -0.9244149299272716
vn 0.49347622067918717 -0.34718327226523815 -0.7974615947388236
vn 0.20119467970411933 -0.3760900608238216 -0.9044760732093973
vn 0.10440119170341405 0.9196104839894008 0.378704302731943
vn 0.9881335020935923 0.13930472900876087 -0.06470219869562886
vn 0.4326789057580948 0.8437588765063195 0.3175845128918773
vn 0.8293216278762903 0.5407141479848168 0.14090368237087883
vn 0.8953499188041754 -0.13759231552141166 -0.4235762949066117
vn 0.0727003844026319 -0.19550103275686578 -0.9780051126137881
vn 0.6423993796207157 -0.18899980187237672 -0.7426992069169874
vn 0.3068940972182612 -0.19099633611401276 -0.9323821173122164
vn 0.9620961515452966 0.007799968097942743 -0.2725988915593769
vn 0.12120071417310846 0.1949011443943936 -0.973305671820361
vn 0.7894163601807541 0.06400132822203064 -0.6105126045093467
vn 0.4548142202190294 0.16200505439801793 -0.8757273476579632
vn 0.9842266284152495 0.1155031305097614 -0.13400362219281708
vn 0.16100987614036946 0.7051432650821817 -0.6905423922501085
vn 0.8716147472878041 0.3316056404042449 -0.36100613784603175
vn 0.5475063219552421 0.5905068404107874 -0.5929068213868953
vn 0.9843044456399442 0.175200782679465 -0.021200095328670836
vn 0.1576949038079908 0.9713686569838813 -0.17769425860820334
vn 0.8707141492703171 0.4866079175716105 -0.0712011574139686
vn 0.5442294534847009 0.8260446276485723 -0.14650793525497247
vn 0.9767037033298405 0.20680077600509264 0.05730021767381346
vn 0.13000639798923655 0.9697476867794231 0.20661016545132052
vn 0.8297281466304539 0.5418183934842657 0.1341045531341918
vn 0.48319351704252317 0.8557884698658523 0.18479751062376443
vn -0.10540313870722497 -0.9944295743543962 0
vn -0.8943871927061888 -0.4472935831455025 0
vn -0.38492068042904354 -0.9229496572284115 0
vn -0.7024412248218342 -0.7117417549018753 0
vn -0.999952958315093 0.00969954415908248 0
vn -0.14069334119476595 0.990053222682222 0
vn -0.9183466506625058 0.39577699429976654 0
vn -0.5467831944035912 0.8372742312515086 0
vn -0.10219516043544244 -0.9581545660864761 -0.26738731583830033
vn -0.8908022496953522 -0.43720113518563386 -0.12380032039575874
vn -0.37749414088724137 -0.8921861282854839 -0.24799614128199998
vn -0.6960028283100298 -0.6915028565254412 -0.19340078180192077
vn -0.7573598134206826 -0.33558220145261214 -0.5601702411621017
vn -0.05389966092882851 -0.5119968319974403 -0.8572946229717893
vn -0.49381853916600327 -0.4540170319559068 -0.7416277941595119
vn -0.2212993192461638 -0.5065984698179524 -0.8332974269006796
vn -0.8725731770718111 -0.4239869319472501 -0.24259252295312767
vn -0.0932010550118947 -0.870309878943132 -0.48360549827174276
vn -0.6636996381564443 -0.6528996349381225 -0.3649998041214151
vn -0.3498054115050385 -0.8200126812018607 -0.4530070383006497
vn -0.8309085740980382 -0.38510396037609984 -0.40160413493016806
vn -0.07589932552557242 -0.6992937346183825 -0.7107936163952504
vn -0.5978923066529012 -0.5638927431236053 -0.5696926925086969
vn -0.29609867241546595 -0.6740969858698945 -0.6766970000191531
vn -0.04760077208760931 -0.3784061360816196 -0.9244149299272716
vn -0.8252386237973613 -0.23641104386600953 -0.5129240022958771
vn -0.20119467970411933 -0.3760900608238216 -0.9044760732093973
vn -0.49347622067918717 -0.34718327226523815 -0.7974615947388236
vn -0.9881335020935923 0.13930472900876087 -0.06470219869562886
vn -0.10440119170341405 0.9196104839894008 0.378704302731943
vn -0.8293216278762903 0.5407141479848168 0.14090368237087883
vn -0.4326789057580948 0.8437588765063195 0.3175845128918773
vn -0.0727003844026319 -0.19550103275686578 -0.9780051126137881
vn -0.8953499188041754 -0.13759231552141166 -0.4235762949066117
vn -0.3068940972182612 -0.19099633611401276 -0.9323821173122164
vn -0.6423993796207157 -0.18899980187237672 -0.7426992069169874
vn -0.12120071417310846 0.1949011443943936 -0.973305671820361
vn -0.9620961515452966 0.007799968097942743 -0.2725988915593769
vn -0.4548142202190294 0.16200505439801793 -0.8757273476579632
vn -0.7894163601807541 0.06400132822203064 -0.6105126045093467
vn -0.16100987614036946 0.7051432650821817 -0.6905423922501085
vn -0.9842266284152495 0.1155031305097614 -0.13400362219281708
vn -0.5475063219552421 0.5905068404107874 -0.5929068213868953
vn -0.8716147472878041 0.3316056404042449 -0.36100613784603175
vn -0.1576949038079908 0.9713686569838813 -0.17769425860820334
vn -0.9843044456399442 0.175200782679465 -0.021200095328670836
vn -0.5442294534847009 0.8260446276485723 -0.14650793525497247
vn -0.8707141492703171 0.4866079175716105 -0.0712011574139686
vn -0.13000639798923655 0.9697476867794231 0.20661016545132052
vn -0.9767037033298405 0.20680077600509264 0.05730021767381346
vn -0.48319351704252317 0.8557884698658523 0.18479751062376443
vn -0.8296831962322517 0.5418890194417477 0.13409729489552044
vn 0.10219516043544244 -0.9581545660864761 0.26738731583830033
vn 0.8908022496953522 -0.43720113518563386 0.12380032039575874
vn 0.37749414088724137 -0.8921861282854839 0.24799614128199998
vn 0.6960028283100298 -0.6915028565254412 0.19340078180192077
vn 0.7573598134206826 -0.33558220145261214 0.5601702411621017
vn 0.05389966092882851 -0.5119968319974403 0.8572946229717893
vn 0.49381853916600327 -0.4540170319559068 0.7416277941595119
vn 0.2212993192461638 -0.5065984698179524 0.8332974269006796
vn 0.8725731770718111 -0.4239869319472501 0.24259252295312767
vn 0.0932010550118947 -0.870309878943132 0.48360549827174276
vn 0.6636996381564443 -0.6528996349381225 0.3649998041214151
vn 0.3498054115050385 -0.8200126812018607 0.4530070383006497
vn 0.8309085740980382 -0.38510396037609984 0.40160413493016806
vn 0.07589932552557242 -0.6992937346183825 0.7107936163952504
vn 0.5978923066529012 -0.5638927431236053 0.5696926925086969
vn 0.29609867241546595 -0.6740969858698945 0.6766970000191531
vn 0.04760077208760931 -0.3784061360816196 0.9244149299272716
vn 0.8252386237973613 -0.23641104386600953 0.5129240022958771
vn 0.20119467970411933 -0.3760900608238216 0.9044760732093973
vn 0.49347622067918717 -0.34718327226523815 0.7974615947388236
vn 0.9881335020935923 0.13930472900876087 0.06470219869562886
vn 0.10440119170341405 0.9196104839894008 -0.378704302731943
vn 0.8293216278762903 0.5407141479848168 -0.14090368237087883
vn 0.4326789057580948 0.8437588765063195 -0.3175845128918773
vn 0.0727003844026319 -0.19550103275686578 0.9780051126137881
vn 0.8953499188041754 -0.13759231552141166 0.4235762949066117
vn 0.3068940972182612 -0.19099633611401276 0.9323821173122164
vn 0.6423993796207157 -0.18899980187237672 0.7426992069169874
vn 0.12120071417310846 0.1949011443943936 0.973305671820361
vn 0.9620961515452966 0.007799968097942743 0.2725988915593769
vn 0.4548142202190294 0.16200505439801793 0.8757273476579632
vn 0.7894163601807541 0.06400132822203064 0.6105126045093467
vn 0.16100987614036946 0.7051432650821817 0.6905423922501085
vn 0.9842266284152495 0.1155031305097614 0.13400362219281708
vn 0.5475063219552421 0.5905068404107874 0.5929068213868953
vn 0.8716147472878041 0.3316056404042449 0.36100613784603175
vn 0.1576949038079908 0.9713686569838813 0.17769425860820334
vn 0.9843044456399442 0.175200782679465 0.021200095328670836
vn 0.5442294534847009 0.8260446276485723 0.14650793525497247
vn 0.8707141492703171 0.4866079175716105 0.0712011574139686
vn 0.13000639798923655 0.9697476867794231 -0.20661016545132052
vn 0.9767037033298405 0.20680077600509264 -0.05730021767381346
vn 0.48319351704252317 0.8557884698658523 -0.18479751062376443
vn 0.8296831962322517 0.5418890194417477 -0.13409729489552044
vn -0.8908022496953522 -0.43720113518563386 0.12380032039575874
vn -0.10219516043544244 -0.9581545660864761 0.26738731583830033
vn -0.6960028283100298 -0.6915028565254412 0.19340078180192077
vn -0.37749414088724137 -0.8921861282854839 0.24799614128199998
vn -0.05389966092882851 -0.5119968319974403 0.8572946229717893
vn -0.7573598134206826 -0.33558220145261214 0.5601702411621017
vn -0.2212993192461638 -0.5065984698179524 0.8332974269006796
vn -0.49381853916600327 -0.4540170319559068 0.7416277941595119
vn -0.0932010550118947 -0.870309878943132 0.48360549827174276
vn -0.8725731770718111 -0.4239869319472501 0.24259252295312767
vn -0.3498054115050385 -0.8200126812018607 0.4530070383006497
vn -0.6636996381564443 -0.6528996349381225 0.3649998041214151
vn -0.07589932552557242 -0.6992937346183825 0.7107936163952504
vn -0.8309085740980382 -0.38510396037609984 0.40160413493016806
vn -0.29609867241546595 -0.6740969858698945 0.6766970000191531
vn -0.5978923066529012 -0.5638927431236053 0.5696926925086969
vn -0.8252386237973613 -0.23641104386600953 0.5129240022958771
vn -0.04760077208760931 -0.3784061360816196 0.9244149299272716
vn -0.49347622067918717 -0.34718327226523815 0.7974615947388236
vn -0.20119467970411933 -0.3760900608238216 0.9044760732093973
vn -0.10440119170341405 0.9196104839894008 -0.378704302731943
vn -0.9881335020935923 0.13930472900876087 0.06470219869562886
vn -0.4326789057580948 0.8437588765063195 -0.3175845128918773
vn -0.8293216278762903 0.5407141479848168 -0.14090368237087883
vn -0.8953499188041754 -0.13759231552141166 0.4235762949066117
vn -0.0727003844026319 -0.19550103275686578 0.9780051126137881
vn -0.6423993796207157 -0.18899980187237672 0.7426992069169874
vn -0.3068940972182612 -0.19099633611401276 0.9323821173122164
vn -0.9620961515452966 0.007799968097942743 0.2725988915593769
vn -0.12120071417310846 0.1949011443943936 0.973305671820361
vn -0.7894163601807541 0.06400132822203064 0.6105126045093467
vn -0.4548142202190294 0.16200505439801793 0.8757273476579632
vn -0.9842266284152495 0.1155031305097614 0.13400362219281708
vn -0.16100987614036946 0.7051432650821817 0.6905423922501085
vn -0.8716147472878041 0.3316056404042449 0.36100613784603175
vn -0.5475063219552421 0.5905068404107874 0.5929068213868953
vn -0.9843044456399442 0.175200782679465 0.021200095328670836
vn -0.1576949038079908 0.9713686569838813 0.17769425860820334
vn -0.8707141492703171 0.4866079175716105 0.0712011574139686
vn -0.5442294534847009 0.8260446276485723 0.14650793525497247
vn -0.9767037033298405 0.20680077600509264 -0.05730021767381346
vn -0.13000639798923655 0.9697476867794231 -0.20661016545132052
vn -0.8297281466304539 0.5418183934842657 -0.1341045531341918
vn -0.48319351704252317 0.8557884698658523 -0.18479751062376443
f 17/17/17 3/3/3 29/29/29
f 17/17/17 29/29/29 132/132/132
f 15/15/15 41/41/41 52/52/52
f 44/44/44 5/5/5 6/6/6
f 44/44/44 6/6/6 48/48/48
f 15/15/15 76/76/76 57/57/57
f 81/81/81 176/176/176 16/16/16
f 15/15/15 72/72/72 76/76/76
f 15/15/15 68/68/68 72/72/72
f 15/15/15 64/64/64 68/68/68
f 8/8/8 56/56/56 77/77/77
f 8/8/8 77/77/77 9/9/9
f 7/7/7 14/14/14 53/53/53
f 7/7/7 53/53/53 40/40/40
f 45/45/45 49/49/49 15/15/15
f 15/15/15 49/49/49 41/41/41
f 33/33/33 15/15/15 57/57/57
f 48/48/48 6/6/6 7/7/7
f 48/48/48 7/7/7 40/40/40
f 15/15/15 52/52/52 60/60/60
f 37/37/37 4/4/4 5/5/5
f 37/37/37 5/5/5 44/44/44
f 4/4/4 37/37/37 29/29/29
f 4/4/4 29/29/29 3/3/3
f 13/13/13 61/61/61 53/53/53
f 13/13/13 53/53/53 14/14/14
f 12/12/12 65/65/65 61/61/61
f 12/12/12 61/61/61 13/13/13
f 11/11/11 69/69/69 65/65/65
f 11/11/11 65/65/65 12/12/12
f 10/10/10 73/73/73 69/69/69
f 10/10/10 69/69/69 11/11/11
f 9/9/9 77/77/77 73/73/73
f 9/9/9 73/73/73 10/10/10
f 15/15/15 60/60/60 64/64/64
f 33/33/33 152/152/152 15/15/15
f 17/17/17 177/177/177 80/80/80
f 17/17/17 80/80/80 3/3/3
f 16/16/16 105/105/105 92/92/92
f 97/97/97 101/101/101 6/6/6
f 97/97/97 6/6/6 5/5/5
f 16/16/16 108/108/108 129/129/129
f 133/133/133 15/15/15 140/140/140
f 16/16/16 129/129/129 125/125/125
f 16/16/16 125/125/125 121/121/121
f 16/16/16 121/121/121 117/117/117
f 8/8/8 9/9/9 128/128/128
f 8/8/8 128/128/128 109/109/109
f 7/7/7 93/93/93 104/104/104
f 7/7/7 104/104/104 14/14/14
f 96/96/96 16/16/16 100/100/100
f 16/16/16 92/92/92 100/100/100
f 84/84/84 108/108/108 16/16/16
f 101/101/101 93/93/93 7/7/7
f 101/101/101 7/7/7 6/6/6
f 16/16/16 113/113/113 105/105/105
f 88/88/88 97/97/97 5/5/5
f 88/88/88 5/5/5 4/4/4
f 4/4/4 3/3/3 80/80/80
f 4/4/4 80/80/80 88/88/88
f 13/13/13 14/14/14 104/104/104
f 13/13/13 104/104/104 112/112/112
f 12/12/12 13/13/13 112/112/112
f 12/12/12 112/112/112 116/116/116
f 11/11/11 12/12/12 116/116/116
f 11/11/11 116/116/116 120/120/120
f 10/10/10 11/11/11 120/120/120
f 10/10/10 120/120/120 124/124/124
f 9/9/9 10/10/10 124/124/124
f 9/9/9 124/124/124 128/128/128
f 16/16/16 117/117/117 113/113/113
f 84/84/84 16/16/16 197/197/197
f 153/153/153 32/32/32 1/1/1
f 153/153/153 1/1/1 21/21/21
f 15/15/15 149/149/149 136/136/136
f 141/141/141 145/145/145 19/19/19
f 141/141/141 19/19/19 18/18/18
f 15/15/15 152/152/152 173/173/173
f 176/176/176 185/185/185 16/16/16
f 15/15/15 173/173/173 169/169/169
f 15/15/15 169/169/169 165/165/165
f 15/15/15 165/165/165 161/161/161
f 21/21/21 22/22/22 172/172/172
f 21/21/21 172/172/172 153/153/153
f 20/20/20 137/137/137 148/148/148
f 20/20/20 148/148/148 27/27/27
f 140/140/140 15/15/15 144/144/144
f 15/15/15 136/136/136 144/144/144
f 56/56/56 8/8/8 2/2/2
f 56/56/56 2/2/2 32/32/32
f 145/145/145 137/137/137 20/20/20
f 145/145/145 20/20/20 19/19/19
f 15/15/15 157/157/157 149/149/149
f 132/132/132 141/141/141 18/18/18
f 132/132/132 18/18/18 17/17/17
f 28/28/28 36/36/36 15/15/15
f 26/26/26 27/27/27 148/148/148
f 26/26/26 148/148/148 156/156/156
f 25/25/25 26/26/26 156/156/156
f 25/25/25 156/156/156 160/160/160
f 24/24/24 25/25/25 160/160/160
f 24/24/24 160/160/160 164/164/164
f 23/23/23 24/24/24 164/164/164
f 23/23/23 164/164/164 168/168/168
f 22/22/22 23/23/23 168/168/168
f 22/22/22 168/168/168 172/172/172
f 15/15/15 161/161/161 157/157/157
f 36/36/36 45/45/45 15/15/15
f 196/196/196 21/21/21 1/1/1
f 196/196/196 1/1/1 85/85/85
f 16/16/16 181/181/181 192/192/192
f 184/184/184 18/18/18 19/19/19
f 184/184/184 19/19/19 188/188/188
f 16/16/16 216/216/216 197/197/197
f 16/16/16 212/212/212 216/216/216
f 16/16/16 208/208/208 212/212/212
f 16/16/16 204/204/204 208/208/208
f 21/21/21 196/196/196 217/217/217
f 21/21/21 217/217/217 22/22/22
f 20/20/20 27/27/27 193/193/193
f 20/20/20 193/193/193 180/180/180
f 185/185/185 189/189/189 16/16/16
f 16/16/16 189/189/189 181/181/181
f 109/109/109 85/85/85 2/2/2
f 109/109/109 2/2/2 8/8/8
f 188/188/188 19/19/19 20/20/20
f 188/188/188 20/20/20 180/180/180
f 16/16/16 192/192/192 200/200/200
f 177/177/177 17/17/17 18/18/18
f 177/177/177 18/18/18 184/184/184
f 81/81/81 16/16/16 89/89/89
f 26/26/26 201/201/201 193/193/193
f 26/26/26 193/193/193 27/27/27
f 25/25/25 205/205/205 201/201/201
f 25/25/25 201/201/201 26/26/26
f 24/24/24 209/209/209 205/205/205
f 24/24/24 205/205/205 25/25/25
f 23/23/23 213/213/213 209/209/209
f 23/23/23 209/209/209 24/24/24
f 22/22/22 217/217/217 213/213/213
f 22/22/22 213/213/213 23/23/23
f 16/16/16 200/200/200 204/204/204
f 89/89/89 16/16/16 96/96/96
f 45/45/45 36/36/36 38/38/38
f 45/45/45 38/38/38 47/47/47
f 47/47/47 38/38/38 39/39/39
f 47/47/47 39/39/39 46/46/46
f 46/46/46 39/39/39 37/37/37
f 46/46/46 37/37/37 44/44/44
f 49/49/49 45/45/45 47/47/47
f 49/49/49 47/47/47 51/51/51
f 51/51/51 47/47/47 46/46/46
f 51/51/51 46/46/46 50/50/50
f 50/50/50 46/46/46 44/44/44
f 50/50/50 44/44/44 48/48/48
f 41/41/41 49/49/49 51/51/51
f 41/41/41 51/51/51 43/43/43
f 43/43/43 51/51/51 50/50/50
f 43/43/43 50/50/50 42/42/42
f 42/42/42 50/50/50 48/48/48
f 42/42/42 48/48/48 40/40/40
f 36/36/36 28/28/28 30/30/30
f 36/36/36 30/30/30 38/38/38
f 38/38/38 30/30/30 31/31/31
f 38/38/38 31/31/31 39/39/39
f 39/39/39 31/31/31 29/29/29
f 39/39/39 29/29/29 37/37/37
f 57/57/57 76/76/76 78/78/78
f 57/57/57 78/78/78 59/59/59
f 59/59/59 78/78/78 79/79/79
f 59/59/59 79/79/79 58/58/58
f 58/58/58 79/79/79 77/77/77
f 58/58/58 77/77/77 56/56/56
f 76/76/76 72/72/72 74/74/74
f 76/76/76 74/74/74 78/78/78
f 78/78/78 74/74/74 75/75/75
f 78/78/78 75/75/75 79/79/79
f 79/79/79 75/75/75 73/73/73
f 79/79/79 73/73/73 77/77/77
f 72/72/72 68/68/68 70/70/70
f 72/72/72 70/70/70 74/74/74
f 74/74/74 70/70/70 71/71/71
f 74/74/74 71/71/71 75/75/75
f 75/75/75 71/71/71 69/69/69
f 75/75/75 69/69/69 73/73/73
f 68/68/68 64/64/64 66/66/66
f 68/68/68 66/66/66 70/70/70
f 70/70/70 66/66/66 67/67/67
f 70/70/70 67/67/67 71/71/71
f 71/71/71 67/67/67 65/65/65
f 71/71/71 65/65/65 69/69/69
f 64/64/64 60/60/60 62/62/62
f 64/64/64 62/62/62 66/66/66
f 66/66/66 62/62/62 63/63/63
f 66/66/66 63/63/63 67/67/67
f 67/67/67 63/63/63 61/61/61
f 67/67/67 61/61/61 65/65/65
f 60/60/60 52/52/52 54/54/54
f 60/60/60 54/54/54 62/62/62
f 62/62/62 54/54/54 55/55/55
f 62/62/62 55/55/55 63/63/63
f 63/63/63 55/55/55 53/53/53
f 63/63/63 53/53/53 61/61/61
f 33/33/33 57/57/57 59/59/59
f 33/33/33 59/59/59 35/35/35
f 35/35/35 59/59/59 58/58/58
f 35/35/35 58/58/58 34/34/34
f 34/34/34 58/58/58 56/56/56
f 34/34/34 56/56/56 32/32/32
f 52/52/52 41/41/41 43/43/43
f 52/52/52 43/43/43 54/54/54
f 54/54/54 43/43/43 42/42/42
f 54/54/54 42/42/42 55/55/55
f 55/55/55 42/42/42 40/40/40
f 55/55/55 40/40/40 53/53/53
f 97/97/97 88/88/88 90/90/90
f 97/97/97 90/90/90 99/99/99
f 99/99/99 90/90/90 91/91/91
f 99/99/99 91/91/91 98/98/98
f 98/98/98 91/91/91 89/89/89
f 98/98/98 89/89/89 96/96/96
f 101/101/101 97/97/97 99/99/99
f 101/101/101 99/99/99 103/103/103
f 103/103/103 99/99/99 98/98/98
f 103/103/103 98/98/98 102/102/102
f 102/102/102 98/98/98 96/96/96
f 102/102/102 96/96/96 100/100/100
f 93/93/93 101/101/101 103/103/103
f 93/93/93 103/103/103 95/95/95
f 95/95/95 103/103/103 102/102/102
f 95/95/95 102/102/102 94/94/94
f 94/94/94 102/102/102 100/100/100
f 94/94/94 100/100/100 92/92/92
f 88/88/88 80/80/80 82/82/82
f 88/88/88 82/82/82 90/90/90
f 90/90/90 82/82/82 83/83/83
f 90/90/90 83/83/83 91/91/91
f 91/91/91 83/83/83 81/81/81
f 91/91/91 81/81/81 89/89/89
f 109/109/109 128/128/128 130/130/130
f 109/109/109 130/130/130 111/111/111
f 111/111/111 130/130/130 131/131/131
f 111/111/111 131/131/131 110/110/110
f 110/110/110 131/131/131 129/129/129
f 110/110/110 129/129/129 108/108/108
f 128/128/128 124/124/124 126/126/126
f 128/128/128 126/126/126 130/130/130
f 130/130/130 126/126/126 127/127/127
f 130/130/130 127/127/127 131/131/131
f 131/131/131 127/127/127 125/125/125
f 131/131/131 125/125/125 129/129/129
f 124/124/124 120/120/120 122/122/122
f 124/124/124 122/122/122 126/126/126
f 126/126/126 122/122/122 123/123/123
f 126/126/126 123/123/123 127/127/127
f 127/127/127 123/123/123 121/121/121
f 127/127/127 121/121/121 125/125/125
f 120/120/120 116/116/116 118/118/118
f 120/120/120 118/118/118 122/122/122
f 122/122/122 118/118/118 119/119/119
f 122/122/122 119/119/119 123/123/123
f 123/123/123 119/119/119 117/117/117
f 123/123/123 117/117/117 121/121/121
f 116/116/116 112/112/112 114/114/114
f 116/116/116 114/114/114 118/118/118
f 118/118/118 114/114/114 115/115/115
f 118/118/118 115/115/115 119/119/119
f 119/119/119 115/115/115 113/113/113
f 119/119/119 113/113/113 117/117/117
f 112/112/112 104/104/104 106/106/106
f 112/112/112 106/106/106 114/114/114
f 114/114/114 106/106/106 107/107/107
f 114/114/114 107/107/107 115/115/115
f 115/115/115 107/107/107 105/105/105
f 115/115/115 105/105/105 113/113/113
f 85/85/85 109/109/109 111/111/111
f 85/85/85 111/111/111 87/87/87
f 87/87/87 111/111/111 110/110/110
f 87/87/87 110/110/110 86/86/86
f 86/86/86 110/110/110 108/108/108
f 86/86/86 108/108/108 84/84/84
f 104/104/104 93/93/93 95/95/95
f 104/104/104 95/95/95 106/106/106
f 106/106/106 95/95/95 94/94/94
f 106/106/106 94/94/94 107/107/107
f 107/107/107 94/94/94 92/92/92
f 107/107/107 92/92/92 105/105/105
f 141/141/141 132/132/132 134/134/134
f 141/141/141 134/134/134 143/143/143
f 143/143/143 134/134/134 135/135/135
f 143/143/143 135/135/135 142/142/142
f 142/142/142 135/135/135 133/133/133
f 142/142/142 133/133/133 140/140/140
f 145/145/145 141/141/141 143/143/143
f 145/145/145 143/143/143 147/147/147
f 147/147/147 143/143/143 142/142/142
f 147/147/147 142/142/142 146/146/146
f 146/146/146 142/142/142 140/140/140
f 146/146/146 140/140/140 144/144/144
f 137/137/137 145/145/145 147/147/147
f 137/137/137 147/147/147 139/139/139
f 139/139/139 147/147/147 146/146/146
f 139/139/139 146/146/146 138/138/138
f 138/138/138 146/146/146 144/144/144
f 138/138/138 144/144/144 136/136/136
f 132/132/132 29/29/29 31/31/31
f 132/132/132 31/31/31 134/134/134
f 134/134/134 31/31/31 30/30/30
f 134/134/134 30/30/30 135/135/135
f 135/135/135 30/30/30 28/28/28
f 135/135/135 28/28/28 133/133/133
f 153/153/153 172/172/172 174/174/174
f 153/153/153 174/174/174 155/155/155
f 155/155/155 174/174/174 175/175/175
f 155/155/155 175/175/175 154/154/154
f 154/154/154 175/175/175 173/173/173
f 154/154/154 173/173/173 152/152/152
f 172/172/172 168/168/168 170/170/170
f 172/172/172 170/170/170 174/174/174
f 174/174/174 170/170/170 171/171/171
f 174/174/174 171/171/171 175/175/175
f 175/175/175 171/171/171 169/169/169
f 175/175/175 169/169/169 173/173/173
f 168/168/168 164/164/164 166/166/166
f 168/168/168 166/166/166 170/170/170
f 170/170/170 166/166/166 167/167/167
f 170/170/170 167/167/167 171/171/171
f 171/171/171 167/167/167 165/165/165
f 171/171/171 165/165/165 169/169/169
f 164/164/164 160/160/160 162/162/162
f 164/164/164 162/162/162 166/166/166
f 166/166/166 162/162/162 163/163/163
f 166/166/166 163/163/163 167/167/167
f 167/167/167 163/163/163 161/161/161
f 167/167/167 161/161/161 165/165/165
f 160/160/160 156/156/156 158/158/158
f 160/160/160 158/158/158 162/162/162
f 162/162/162 158/158/158 159/159/159
f 162/162/162 159/159/159 163/163/163
f 163/163/163 159/159/159 157/157/157
f 163/163/163 157/157/157 161/161/161
f 156/156/156 148/148/148 150/150/150
f 156/156/156 150/150/150 158/158/158
f 158/158/158 150/150/150 151/151/151
f 158/158/158 151/151/151 159/159/159
f 159/159/159 151/151/151 149/149/149
f 159/159/159 149/149/149 157/157/157
f 32/32/32 153/153/153 155/155/155
f 32/32/32 155/155/155 34/34/34
f 34/34/34 155/155/155 154/154/154
f 34/34/34 154/154/154 35/35/35
f 35/35/35 154/154/154 152/152/152
f 35/35/35 152/152/152 33/33/33
f 148/148/148 137/137/137 139/139/139
f 148/148/148 139/139/139 150/150/150
f 150/150/150 139/139/139 138/138/138
f 150/150/150 138/138/138 151/151/151
f 151/151/151 138/138/138 136/136/136
f 151/151/151 136/136/136 149/149/149
f 185/185/185 176/176/176 178/178/178
f 185/185/185 178/178/178 187/187/187
f 187/187/187 178/178/178 179/179/179
f 187/187/187 179/179/179 186/186/186
f 186/186/186 179/179/179 177/177/177
f 186/186/186 177/177/177 184/184/184
f 189/189/189 185/185/185 187/187/187
f 189/189/189 187/187/187 191/191/191
f 191/191/191 187/187/187 186/186/186
f 191/191/191 186/186/186 190/190/190
f 190/190/190 186/186/186 184/184/184
f 190/190/190 184/184/184 188/188/188
f 181/181/181 189/189/189 191/191/191
f 181/181/181 191/191/191 183/183/183
f 183/183/183 191/191/191 190/190/190
f 183/183/183 190/190/190 182/182/182
f 182/182/182 190/190/190 188/188/188
f 182/182/182 188/188/188 180/180/180
f 176/176/176 81/81/81 83/83/83
f 176/176/176 83/83/83 178/178/178
f 178/178/178 83/83/83 82/82/82
f 178/178/178 82/82/82 179/179/179
f 179/179/179 82/82/82 80/80/80
f 179/179/179 80/80/80 177/177/177
f 197/197/197 216/216/216 218/218/218
f 197/197/197 218/218/218 199/199/199
f 199/199/199 218/218/218 219/219/219
f 199/199/199 219/219/219 198/198/198
f 198/198/198 219/219/219 217/217/217
f 198/198/198 217/217/217 196/196/196
f 216/216/216 212/212/212 214/214/214
f 216/216/216 214/214/214 218/218/218
f 218/218/218 214/214/214 215/215/215
f 218/218/218 215/215/215 219/219/219
f 219/219/219 215/215/215 213/213/213
f 219/219/219 213/213/213 217/217/217
f 212/212/212 208/208/208 210/210/210
f 212/212/212 210/210/210 214/214/214
f 214/214/214 210/210/210 211/211/211
f 214/214/214 211/211/211 215/215/215
f 215/215/215 211/211/211 209/209/209
f 215/215/215 209/209/209 213/213/213
f 208/208/208 204/204/204 206/206/206
f 208/208/208 206/206/206 210/210/210
f 210/210/210 206/206/206 207/207/207
f 210/210/210 207/207/207 211/211/211
f 211/211/211 207/207/207 205/205/205
f 211/211/211 205/205/205 209/209/209
f 204/204/204 200/200/200 202/202/202
f 204/204/204 202/202/202 206/206/206
f 206/206/206 202/202/202 203/203/203
f 206/206/206 203/203/203 207/207/207
f 207/207/207 203/203/203 201/201/201
f 207/207/207 201/201/201 205/205/205
f 200/200/200 192/192/192 194/194/194
f 200/200/200 194/194/194 202/202/202
f 202/202/202 194/194/194 195/195/195
f 202/202/202 195/195/195 203/203/203
f 203/203/203 195/195/195 193/193/193
f 203/203/203 193/193/193 201/201/201
f 84/84/84 197/197/197 199/199/199
f 84/84/84 199/199/199 86/86/86
f 86/86/86 199/199/199 198/198/198
f 86/86/86 198/198/198 87/87/87
f 87/87/87 198/198/198 196/196/196
f 87/87/87 196/196/196 85/85/85
f 192/192/192 181/181/181 183/183/183
f 192/192/192 183/183/183 194/194/194
f 194/194/194 183/183/183 182/182/182
f 194/194/194 182/182/182 195/195/195
f 195/195/195 182/182/182 180/180/180
f 195/195/195 180/180/180 193/193/193
f 28/28/28 15/15/15 133/133/133
